<svg xmlns="http://www.w3.org/2000/svg" viewBox="0 0 32 32" width="32" height="32">
  <rect width="32" height="32" rx="6" ry="6" fill="#1976D2"/>
  <g transform="translate(16,16)">
    <!-- Simplified 8-tooth gear for small size -->
    <path d="M-1.7,-10.6 L1.7,-10.6 L1.9,-7.8 L4.2,-6.8 L6.3,-8.7 L8.7,-6.3 L6.8,-4.2 L7.8,-1.9 L10.6,-1.7 L10.6,1.7 L7.8,1.9 L6.8,4.2 L8.7,6.3 L6.3,8.7 L4.2,6.8 L1.9,7.8 L1.7,10.6 L-1.7,10.6 L-1.9,7.8 L-4.2,6.8 L-6.3,8.7 L-8.7,6.3 L-6.8,4.2 L-7.8,1.9 L-10.6,1.7 L-10.6,-1.7 L-7.8,-1.9 L-6.8,-4.2 L-8.7,-6.3 L-6.3,-8.7 L-4.2,-6.8 L-1.9,-7.8 Z" fill="white"/>
    <circle cx="0" cy="0" r="4.5" fill="#1976D2"/>
    <polyline points="-2.5,0.5 -0.7,2.7 3,-2.2" fill="none" stroke="white" stroke-width="1.8" stroke-linecap="round" stroke-linejoin="round"/>
  </g>
</svg>